<svg width="253" height="16" viewBox="0 0 253 16" fill="none" xmlns="http://www.w3.org/2000/svg">
<path d="M5.01957 15.9999H0V0.313721H5.01957L14.5303 9.23006L24.1567 0.313721H29.1763C29.1763 0.313721 29.2313 10.7712 29.1763 15.9999H24.1567L24.2723 6.91842L14.5303 15.5045L5.01957 6.90191V15.9999Z" fill="black"/>
<path d="M57.7249 0.313721H32.6271V4.70585H47.9995L32.6271 12.4051V15.9999L57.7249 15.6862V11.6078H42.0388L57.7249 3.76468V0.313721Z" fill="black"/>
<path d="M66.329 0.313721H61.4896V15.9999H66.329V0.313721Z" fill="black"/>
<path d="M85.7042 0.313721H105.683V4.77189H86.6949C85.8693 4.77189 85.8693 6.25795 86.6949 6.25795H101.886C108.391 6.25795 108.078 15.9999 101.886 15.9999H81.9065V11.6078L100.73 11.7068C101.555 11.7068 101.555 10.0557 100.73 10.0557H85.7042C78.9344 10.2208 78.9344 0.313721 85.7042 0.313721Z" fill="black"/>
<path d="M231.077 0H251.057V4.45817H232.068C231.242 4.45817 231.242 5.94423 232.068 5.94423H247.259C253.765 5.94423 253.451 15.6862 247.259 15.6862H227.28V11.294L246.103 11.3931C246.929 11.3931 246.929 9.74193 246.103 9.74193H231.077C224.308 9.90705 224.308 0 231.077 0Z" fill="black"/>
<path d="M196.077 4.71904V0.470703H222.874V4.71904H212.253V15.9935L207.025 15.8301V4.71904H196.077Z" fill="black"/>
<path fill-rule="evenodd" clip-rule="evenodd" d="M109.803 0.313965V16.0001H114.823V11.2943H130.195C136.47 11.2943 136.47 0.313965 130.113 0.313965H109.803ZM114.666 4.7062V6.7454H128.156C129.254 6.7454 129.097 4.7062 128.156 4.7062H114.666Z" fill="black"/>
<path fill-rule="evenodd" clip-rule="evenodd" d="M168.156 0.156982V15.6797H173.058V10.9412H181.391L187.927 15.6797H196.097L188.254 10.9412C194.463 10.9412 194.463 0.156982 188.254 0.156982H168.156ZM173.019 4.39224V6.43144H186.509C187.607 6.43144 187.45 4.39224 186.509 4.39224H173.019Z" fill="black"/>
<path fill-rule="evenodd" clip-rule="evenodd" d="M144.87 0H157.322C167.833 0 167.51 15.6862 157.322 15.6862H144.87C134.197 15.6862 133.874 0 144.87 0ZM144.94 4.23533H155.92C160.312 4.23533 160.312 11.2941 155.92 11.2941H144.94C140.862 11.2941 140.391 4.23533 144.94 4.23533Z" fill="black"/>
</svg>
